<?xml version="1.0" encoding="UTF-8" standalone="no"?>
<!-- Created with Inkscape (http://www.inkscape.org/) -->

<svg
   width="54.476067mm"
   height="54.47607mm"
   viewBox="0 0 54.476067 54.47607"
   version="1.1"
   id="svg1"
   xmlns="http://www.w3.org/2000/svg"
   xmlns:svg="http://www.w3.org/2000/svg">
  <defs
     id="defs1" />
  <g
     id="layer1"
     transform="translate(-71.154603,-68.603693)">
    <circle
       style="fill:#ffffff;stroke:#000000;stroke-width:2"
       id="path1"
       cx="98.392639"
       cy="95.841721"
       r="26.238035" />
    <path
       d="m 85.052535,100.94356 h -4.254013 v -1.099679 h 1.410769 v -8.57314 h -1.410769 v -1.099677 h 4.254013 v 1.099677 h -1.41077 v 8.57314 h 1.41077 z m 10.758024,-0.78135 q -0.39791,0.17363 -0.723472,0.32556 -0.318327,0.15193 -0.839227,0.31833 -0.441318,0.13746 -0.962217,0.23151 -0.513665,0.10129 -1.135851,0.10129 -1.172024,0 -2.134241,-0.32557 -0.954983,-0.33279 -1.663985,-1.034562 -0.694533,-0.687298 -1.085208,-1.743566 -0.390674,-1.063504 -0.390674,-2.467039 0,-1.331188 0.376205,-2.380222 0.376205,-1.049034 1.085207,-1.772505 0.687298,-0.701768 1.656751,-1.070738 0.976686,-0.368971 2.16318,-0.368971 0.868166,0 1.729097,0.209807 0.868166,0.209807 1.924435,0.737941 v 1.700158 h -0.108521 q -0.88987,-0.745175 -1.765271,-1.085207 -0.875401,-0.340032 -1.873791,-0.340032 -0.817523,0 -1.475883,0.267685 -0.651124,0.26045 -1.164789,0.817523 -0.499196,0.542604 -0.78135,1.374596 -0.274919,0.824758 -0.274919,1.909965 0,1.135851 0.303858,1.953374 0.311093,0.817523 0.795819,1.331188 0.50643,0.535369 1.179259,0.795818 0.680063,0.253216 1.432474,0.253216 1.034564,0 1.938904,-0.354502 0.90434,-0.354501 1.692924,-1.063503 h 0.101286 z m 10.056251,-8.754009 q 0.65836,0.723472 1.00563,1.772506 0.3545,1.049034 0.3545,2.380221 0,1.331188 -0.36173,2.387457 -0.35451,1.049034 -0.9984,1.750801 -0.66559,0.730704 -1.57716,1.099674 -0.90434,0.36897 -2.06913,0.36897 -1.13585,0 -2.06913,-0.3762 -0.926045,-0.37621 -1.57717,-1.092444 -0.651124,-0.716237 -1.005626,-1.758036 -0.347266,-1.041799 -0.347266,-2.380222 0,-1.316718 0.347266,-2.358517 0.347267,-1.049034 1.012861,-1.79421 0.636655,-0.709002 1.577165,-1.085208 0.94775,-0.376205 2.0619,-0.376205 1.15755,0 2.07636,0.38344 0.92604,0.376205 1.56993,1.077973 z m -0.13022,4.152727 q 0,-2.098067 -0.94051,-3.233918 -0.94052,-1.143085 -2.56833,-1.143085 -1.64228,0 -2.582792,1.143085 -0.933278,1.135851 -0.933278,3.233918 0,2.119772 0.954982,3.248388 0.954978,1.121381 2.561088,1.121381 1.60611,0 2.55386,-1.121381 0.95498,-1.128616 0.95498,-3.248388 z m 11.98069,5.382632 h -1.77251 l -5.10771,-9.636645 v 9.636645 h -1.33842 V 90.171064 h 2.22106 l 4.65916,8.797416 v -8.797416 h 1.33842 z"
       id="text1"
       style="font-size:14.8167px;stroke-width:2"
       aria-label="ICON" />
  </g>
</svg>
