<svg    xmlns="http://www.w3.org/2000/svg" display="none">

    <symbol id="icon-email" viewBox="0 0 26.458334 26.458334">
        <path
            d="m 4.5718142,6.9752852 a 0.34915849,0.34915849 0 0 0 -0.217041,0.622184 l 8.0920118,6.4352658 a 1.2574351,1.2574351 0 0 0 1.565279,0 l 8.092013,-6.4352658 a 0.34915852,0.34915852 0 0 0 -0.217558,-0.622184 z m -0.999939,1.759066 v 9.7487578 a 1,1 0 0 0 0.999939,0.999939 H 21.886519 a 1,1 0 0 0 0.999939,-0.999939 V 8.7343512 l -8.874394,7.0579668 a 1.257435,1.257435 0 0 1 -1.565279,0 z" 
            style="fill:currentColor;"
        />
    </symbol>

    <symbol id="icon-youtube" viewBox="0 0 26.458334 26.458334">
        <path
            d="m 13.229166,7.4274459 c -8.2040499,0 -8.2041499,-4.55e-4 -8.2041499,5.8011951 0,5.801651 10e-5,5.793713 8.2041499,5.801713 8.20405,0.008 8.204151,-6.2e-5 8.204151,-5.801713 0,-5.8016501 -1.01e-4,-5.8011951 -8.204151,-5.8011951 z m -1.652095,3.3610351 4.171838,2.441194 -4.161503,2.421041 z" 
            style="fill:currentColor;"
            />
    </symbol>

    <symbol id="icon-twitch" viewBox="0 0 26.458334 26.458334">
        <path
            d="m 9.4237068,5.6267884 -2.7197313,2.719732 v 9.7833806 h 3.2488983 l 0.01395,2.701644 2.7057782,-2.701644 h 0.0088 2.171961 l 4.900995,-4.900995 V 5.6267884 Z m 9.2263112,1.08577 -0.0088,0.0093 v 5.9598426 l -2.181262,2.180701 H 14.29678 l -1.879471,1.879989 -5.17e-4,-0.0088 V 14.862387 H 9.9709458 V 6.7217994 l -0.0026,-0.0047 8.6816412,-0.0045 z m -5.703527,1.898732 v 3.2530516 h 1.095024 V 8.6112904 Z m 2.983797,-9e-5 -6e-4,3.2531416 1.096121,6e-6 V 8.6111664 l -1.095559,1.25e-4 z" 
            style="fill:currentColor;"
            />
    </symbol>

    <symbol id="icon-linkedin" viewBox="0 0 26.458334 26.458334">
        <path
            d="m 7.1636335,5.2728045 a 1.8804655,1.8793529 0 0 0 -1.880505,1.879472 1.8804655,1.8793529 0 0 0 1.880505,1.878955 1.8804655,1.8793529 0 0 0 1.880505,-1.878955 1.8804655,1.8793529 0 0 0 -1.880505,-1.879472 z m 9.9229095,5.1263025 c -1.223397,0.004 -2.523789,0.490973 -3.448369,1.693954 V 10.589793 H 10.61872 v 10.595736 l 3.193087,-0.0093 0.01964,-5.257043 c 0,0 0.02072,-2.545581 2.15129,-2.545581 2.130574,0 1.952852,2.545581 1.952852,2.545581 l -0.0067,5.257043 h 3.220476 l 0.02584,-5.382617 c -0.03545,-1.671985 0.130904,-2.735276 -1.102258,-4.191475 -0.616581,-0.7281 -1.762984,-1.207063 -2.986381,-1.203028 z M 5.5322085,10.589793 v 10.595736 h 3.275252 V 10.589793 Z" 
            style="fill:currentColor;"
            />
    </symbol>

    <symbol id="icon-filledtwitch" viewBox="0 0 26.458334 26.458334">
        <path
            d="M 13.229166,0 A 13.229166,13.229167 0 0 0 -3.3333336e-7,13.229166 13.229166,13.229167 0 0 0 13.229166,26.458333 13.229166,13.229167 0 0 0 26.458333,13.229166 13.229166,13.229167 0 0 0 13.229166,0 Z M 9.4237146,5.627047 H 19.754349 v 7.601603 l -4.900993,4.901509 h -2.17196 -0.0088 l -2.7057774,2.701644 -0.01395,-2.701644 H 6.7039716 V 8.346777 Z m 9.2263094,1.085721 -8.6816404,0.0041 0.0026,0.0047 v 8.140589 h 2.4458444 v 1.871203 l 5.17e-4,0.0093 1.879472,-1.879989 h 2.163176 l 2.181246,-2.180758 V 6.72207 Z M 12.946496,8.61136 h 1.095024 v 3.253032 h -1.095024 z m 2.983797,0 h 1.09554 v 3.253032 h -1.096057 z"
            style="fill:currentColor;"
            />
    </symbol>
    
</svg>