<svg    xmlns="http://www.w3.org/2000/svg" display="none">

    <symbol id="icon-godot" viewBox="0 0 26.458334 26.458334">
        <path
            d="M 10.514634,0.72866468 C 9.2955483,0.99533522 8.1244816,1.395423 7.0006372,1.9287766 7.0196881,2.9002353 7.0958815,3.8718641 7.2292288,4.8433228 6.3149156,5.3576349 5.4766424,5.9669647 4.7147139,6.6717529 3.9718353,6.1574409 3.1910229,5.7100472 2.3719467,5.3290877 1.4576346,6.2624466 0.66668812,7.2909287 -3.8333333e-7,8.41477 0.49525251,9.2147996 1.0287001,9.9864057 1.6001472,10.729276 v 7.028906 l 4.3435546,0.400033 c 0.228578,0.01903 0.3708589,0.152415 0.4280024,0.400043 l 0.1142963,1.913847 3.7717715,0.285745 0.228592,-1.742721 c 0.03809,-0.209521 0.180681,-0.352709 0.428306,-0.428911 h 4.628994 c 0.247627,0.07624 0.390208,0.21939 0.428305,0.428911 l 0.228593,1.742721 3.771772,-0.285745 0.114296,-1.913847 c 0.05714,-0.247628 0.200032,-0.38099 0.42861,-0.400043 l 4.342948,-0.400033 V 10.729276 C 25.429634,9.9864057 25.963081,9.2147996 26.458333,8.41477 25.791646,7.2909287 25.001307,6.2624466 24.086993,5.3290877 23.26792,5.7100472 22.486497,6.1574409 21.743618,6.6717529 20.98169,5.9669647 20.144025,5.3576349 19.229712,4.8433228 19.363049,3.8718641 19.438649,2.9002353 19.457697,1.9287766 18.333854,1.395423 17.162785,0.99533522 15.943699,0.72866468 15.448445,1.5477408 15.010259,2.3958297 14.629294,3.2720525 c -0.933362,-0.133341 -1.866892,-0.133341 -2.800254,0 C 11.448076,2.3958297 11.009887,1.5477408 10.514634,0.72866468 Z M 7.143203,10.986441 A 2.5715074,2.5715074 0 0 1 9.7151693,13.557795 2.5715074,2.5715074 0 0 1 7.143203,16.129161 2.5715074,2.5715074 0 0 1 4.5715405,13.557795 2.5715074,2.5715074 0 0 1 7.143203,10.986441 Z m 12.172232,0 a 2.5715074,2.5715074 0 0 1 2.571358,2.571354 2.5715074,2.5715074 0 0 1 -2.571358,2.571366 2.5715074,2.5715074 0 0 1 -2.571663,-2.571366 2.5715074,2.5715074 0 0 1 2.571663,-2.571354 z M 7.3717946,12.014803 a 1.7143382,1.7143382 0 0 0 -1.7141368,1.714441 1.7143382,1.7143382 0 0 0 1.7141368,1.714438 1.7143382,1.7143382 0 0 0 1.7144427,-1.714438 1.7143382,1.7143382 0 0 0 -1.7144427,-1.714441 z m 11.7147424,0 a 1.7143382,1.7143382 0 0 0 -1.714441,1.714441 1.7143382,1.7143382 0 0 0 1.714441,1.714438 1.7143382,1.7143382 0 0 0 1.714442,-1.714438 1.7143382,1.7143382 0 0 0 -1.714442,-1.714441 z m -5.85737,0.471777 c 0.414299,0 0.828951,0.242902 0.828951,0.728631 v 2.457068 c 0,0.971459 -1.657599,0.971459 -1.657599,0 v -2.457068 c 0,-0.485729 0.41435,-0.728631 0.828648,-0.728631 z M 1.6001472,18.700816 v 1.11439 c 0,7.88595 23.2294688,7.88595 23.2580408,0 v -1.11439 l -3.82892,0.343193 -0.142566,1.971306 c -0.03809,0.190479 -0.171457,0.314014 -0.400036,0.371164 l -4.628688,0.314613 c -0.228579,0 -0.381296,-0.105103 -0.457489,-0.314613 l -0.285436,-1.857018 h -3.771772 l -0.285436,1.857018 c -0.07619,0.209521 -0.228303,0.314613 -0.45688,0.314613 L 5.9716676,21.386479 C 5.7430895,21.329389 5.6097276,21.205794 5.571631,21.015315 L 5.4290651,19.044009 Z" 
            style="fill:currentColor;fill-opacity:1;stroke-width:0.0285723"
        />
    </symbol>

    <symbol id="icon-unity" viewBox="0 0 26.458334 26.458334">
        <path
            d="m 12.144316,0.00104658 h 0.05171 c 0,1.52390822 0,3.04885172 0.01088,4.57120882 0,0.1715629 -0.09715,0.2191028 -0.2067,0.2836975 Q 10.066514,5.9716267 8.1343684,7.0878156 c -0.317288,0.1834476 -0.3162527,0.3513916 0.00353,0.5358744 1.5859164,0.917238 3.1744216,1.8303433 4.7572376,2.752234 0.236158,0.137456 0.440276,0.139523 0.671782,0 0.770999,-0.4542276 1.550263,-0.8965701 2.322809,-1.3435616 Q 17.118574,8.3223406 18.346379,7.6112882 C 18.566513,7.4836495 18.618708,7.3410255 18.49262,7.2051179 A 0.96426355,0.96426355 0 0 0 18.261641,7.044924 Q 16.362578,5.9473379 14.461956,4.8533688 C 14.350855,4.7892923 14.25112,4.74175 14.252155,4.5712219 c 0.0098,-1.5233924 0.0088,-3.0488512 0.01035,-4.571208266666 h 0.05171 C 14.395867,0.05840771 14.472861,0.12403472 14.559161,0.1741588 q 5.06419,2.9243125 10.12838,5.8424262 c 0.185,0.106451 0.264583,0.2149678 0.264065,0.4382059 q -0.01088,5.8785971 -0.0053,11.7561611 v 0.277497 a 1.4867023,1.4867023 0 0 1 -0.144694,-0.05891 c -1.274835,-0.734826 -2.550698,-1.467065 -3.818815,-2.213775 -0.08113,-0.04754 -0.136423,-0.206703 -0.136941,-0.315221 -0.0093,-1.472751 -0.0059,-2.9455 -0.0067,-4.41825 0,-0.420637 -0.132288,-0.49505 -0.499699,-0.283181 -1.564735,0.903286 -3.127398,1.808639 -4.695743,2.706759 -0.25373,0.144692 -0.365865,0.324005 -0.364312,0.620105 0.0088,1.817426 0.0041,3.634334 0.0047,5.45176 0,0.400484 0.140553,0.480063 0.488846,0.279563 1.28207,-0.738958 2.565169,-1.475851 3.843103,-2.222043 0.155023,-0.09043 0.266129,-0.08423 0.416506,0.0036 1.21127,0.707435 2.428739,1.406089 3.64105,2.108358 0.06976,0.04031 0.136423,0.0863 0.223753,0.142106 -0.103353,0.06511 -0.182412,0.117821 -0.263547,0.164329 q -4.838897,2.794606 -9.678817,5.588181 c -0.228923,0.132289 -0.449575,0.277496 -0.674363,0.416503 H 13.177244 A 2.3078249,2.3078249 0 0 0 12.974162,26.310555 Q 7.8701783,23.361957 2.7641293,20.41284 c -0.063559,-0.03669 -0.1235058,-0.07958 -0.1994645,-0.129189 0.072347,-0.04651 0.1214352,-0.08113 0.1731116,-0.111104 1.2365932,-0.71312 2.4752511,-1.423658 3.7082266,-2.143496 0.146247,-0.08475 0.2490763,-0.08372 0.3942879,0 1.2696638,0.741543 2.5444981,1.474818 3.8182971,2.210674 0.388594,0.224271 0.516752,0.147275 0.516752,-0.310052 0,-1.790553 -0.0059,-3.581624 0.0053,-5.374244 0,-0.313672 -0.106452,-0.507971 -0.379299,-0.664031 C 9.2319598,12.996897 7.6703315,12.089476 6.1055975,11.186707 5.756786,10.985171 5.6203626,11.064237 5.6203626,11.469888 c 0,1.472232 -0.00412,2.945499 0.00353,4.416698 0,0.187583 -0.055294,0.292483 -0.2196175,0.386017 -1.2257403,0.698135 -2.4457982,1.406605 -3.668956,2.110424 -0.062529,0.03618 -0.1307411,0.06201 -0.213941,0.100767 -0.00412,-0.08888 -0.00876,-0.147791 -0.00876,-0.206701 q 0,-5.942675 -0.00588,-11.881732 c 0,-0.1891315 0.080618,-0.2712962 0.2258234,-0.3550108 Q 6.8297733,3.1036354 11.922898,0.15813527 a 2.3662181,2.3662181 0 0 0 0.221177,-0.15709222 z"
            style="fill:currentColor;stroke-width:0.0516753" 
        />
    </symbol>

    <symbol id="icon-unreal" viewBox="0 0 26.458334 26.458334">
        <path
            d="M 13.24777,0 C 5.9948556,0 0.04696634,5.9079132 0.0434082,13.115995 0.03985006,20.536854 5.8960157,26.458333 13.240019,26.458333 20.514282,26.463314 26.455487,20.465869 26.458333,13.126848 26.459045,6.0027375 20.418136,0 13.24777,0 Z m 0.01034,1.6893026 C 19.584484,1.6985526 24.77616,6.8786742 24.763351,13.178007 24.750541,19.530712 19.593973,24.661426 13.22917,24.654309 6.975378,24.647193 1.804007,19.396259 1.8153931,13.062768 1.8267791,6.8488311 7.0228192,1.6836096 13.258106,1.6893026 Z M 12.328963,5.2637614 A 9.9286366,9.9286366 0 0 0 9.8722654,6.2538819 C 7.8569343,7.4109895 6.2497243,9.0196762 4.8570679,10.849984 a 7.4913101,7.4913101 0 0 0 -1.4639933,3.383255 c -0.086107,0.532298 -0.088793,0.985667 0.022221,1.239718 0.03914,-0.07116 0.073066,-0.14226 0.1100708,-0.213423 a 13.359396,13.359396 0 0 1 2.7853597,-3.642155 c 0.3607955,-0.33233 0.7572843,-0.618649 1.2490197,-0.735356 0.5372792,-0.125247 0.9348261,0.165054 0.9348261,0.711585 0.00379,2.050438 0.00379,4.101166 0,6.152079 -0.00142,0.433381 -0.2474509,0.676444 -0.683679,0.676444 a 5.7677466,5.7677466 0 0 1 -0.63407,-0.07131 l -0.042891,0.05633 c 0.3330419,0.328061 0.6401088,0.688924 1.0030392,0.979268 1.4161401,1.131489 3.0906289,1.62304 4.8462159,1.914096 0.278958,0.04626 0.438338,-0.04157 0.613399,-0.235128 0.536567,-0.590651 1.090689,-1.165568 1.650029,-1.759066 l 1.808158,1.524972 c 2.11994,-1.307261 3.601675,-3.146768 4.696871,-5.325774 -0.237684,0.190005 -0.450342,0.404325 -0.675928,0.603581 -0.484618,0.429824 -0.994789,0.832443 -1.623157,1.045931 -0.319521,0.108168 -0.647946,0.169639 -0.953947,-0.0083 -0.110302,-0.06476 -0.238744,-0.217902 -0.238744,-0.331762 -0.02942,-2.413369 -0.04633,-4.827145 -0.05013,-7.241936 A 1.0838097,1.0838097 0 0 1 18.393193,8.9787804 C 18.980286,8.1554266 19.592655,7.3494856 20.19825,6.5396525 20.311399,6.3902106 20.436288,6.2478639 20.604944,6.0414917 18.559013,6.4777198 16.873569,7.3938271 15.474508,8.8263347 14.990601,8.531009 14.473669,8.4912596 13.873055,8.5033572 c 0.635484,0.5095258 0.990951,1.1055678 0.997355,1.8634518 0.01,2.095033 0.005,4.190371 0,6.285404 a 0.36791178,0.36791178 0 0 1 -0.09147,0.256833 c -0.461847,0.380721 -0.958481,0.70748 -1.547709,0.858345 -0.708782,0.182177 -1.491603,-0.347474 -1.473812,-1.148767 0.05408,-2.457964 0.02015,-4.917424 0.02015,-7.3768109 V 8.9209022 c -0.616982,0.1892931 -0.871389,0.042814 -1.00304,-0.5457028 -0.198544,-0.8859771 0.05003,-1.6516977 0.665593,-2.2985678 0.273977,-0.2874977 0.586392,-0.5388934 0.888834,-0.8128702 z"
            style="fill:currentColor;stroke-width:0.0711628" 
        />
    </symbol>

    <symbol id="icon-blender" viewBox="0 0 26.458334 26.458334">
        <path
            d="m 16.556368,23.970423 c -4.616894,-0.27077 -8.8189012,-4.233167 -8.4960954,-8.011619 0.014882,-0.174086 0.023589,-0.320978 0.019412,-0.32643 -0.00411,-0.0055 -1.1448177,0.9211 -2.5346943,2.059003 -2.6688062,2.184967 -2.6977828,2.207708 -2.9842886,2.341778 -1.75881786,0.82305 -3.21990599,-0.678516 -2.25174124,-2.31412 0.26571176,-0.448887 -0.26124117,-0.04331 7.59152414,-5.843012 1.2452295,-0.919674 2.2649294,-1.681844 2.2659994,-1.693715 0.0012,-0.01186 -1.1731405,-0.02177 -2.6093524,-0.022 C 4.6814604,10.159943 4.74709,10.163538 4.4056841,9.9815893 3.2542957,9.3679039 3.3697839,7.7550731 4.6042665,7.2083625 5.089937,6.9932713 4.5711488,7.0118414 10.547267,6.9956296 15.88972,6.9811408 15.88972,6.9811408 14.281467,5.69054 13.39692,4.9807123 12.626084,4.3477859 12.568496,4.2840375 c -0.684753,-0.757937 0.09461,-1.8127478 1.340624,-1.8144507 0.651918,-8.824e-4 0.610152,-0.02563 2.805518,1.6615436 7.39286,5.6815178 7.536683,5.7497571 8.403102,7.0525026 3.858777,5.802043 -1.110419,13.22377 -8.56136,12.78679 z m 1.636018,-4.185856 c 4.332541,-0.630221 6.251288,-5.267947 3.418059,-8.261647 -2.907336,-3.0720003 -8.46419,-2.0103125 -9.734891,1.859937 -1.15854,3.528657 2.258872,6.991988 6.316832,6.40171 z m -1.319448,-2.347534 c -2.129924,-0.246499 -3.433612,-2.373285 -2.542772,-4.148174 1.183808,-2.358578 4.835285,-2.333206 5.950255,0.04134 0.989271,2.106837 -0.909971,4.395873 -3.407483,4.10683 z"
            style="fill:currentColor;stroke-width:0.108754"
        />
    </symbol>

    <symbol id="icon-inkscape" viewBox="0 0 26.458334 26.458334">
        <path
            d="M 12.477211,26.16654 C 12.035278,26.054613 11.764241,25.828643 11.675513,25.498142 11.375219,24.379569 11.106726,24.156521 9.7355092,23.8865 8.7333786,23.68916 8.3180303,23.434681 8.3191004,23.018685 8.3196886,22.758998 8.4376563,22.585592 9.0836904,21.894015 10.042009,20.868145 9.7263105,20.586239 6.3680548,19.469051 2.6501522,18.232226 2.4912582,17.971533 4.7810266,16.86528 6.5397013,16.015615 6.3045483,15.726798 3.1609341,14.875467 -0.10766103,13.990292 -0.66235639,13.26278 0.67937018,11.620785 0.97159697,11.263155 10.895464,1.1054251 11.173733,0.8791133 c 1.08468,-0.8821589 2.89546,-0.85868832 3.989103,0.0517059 0.282227,0.2349354 10.532451,10.7277128 10.731002,10.9849308 1.248974,1.618012 0.452975,2.811253 -2.663607,3.992871 -0.190939,0.0724 -0.912541,0.329099 -1.60356,0.570453 -3.756804,1.312177 -3.868542,1.443482 -2.09095,2.457105 1.390687,0.793006 1.536627,1.077101 0.964895,1.878306 -0.300916,0.421701 -0.664261,0.614083 -1.702598,0.901483 -1.24259,0.343936 -1.832868,0.638219 -2.527568,1.260119 -0.625913,0.560316 -0.599147,0.732886 0.176426,1.137482 0.717531,0.374316 0.709595,0.57234 -0.04258,1.062633 -1.154876,0.752787 -3.013939,1.22161 -3.927082,0.990342 z M 13.621755,7.7174905 c 1.277907,-0.8096471 1.265565,-0.8061237 1.265565,-0.8061237 0,0 1.586165,0.8421942 1.591859,0.837553 0.0058,-0.0047 0.09519,-0.5175353 0.198897,-1.1397589 0.09236,-0.5541529 0.185214,-1.1086354 0.185214,-1.1086354 0,0 0.462842,0.3516471 0.941429,0.7415177 0.515952,0.420306 0.950529,0.7641942 0.965726,0.7641942 0.152279,0 0.193749,-0.6398354 0.06316,-0.9743353 C 18.758585,5.8397727 17.381637,4.3972843 14.965339,1.9795135 14.225211,1.2389369 13.473492,0.99690744 12.604066,1.2192663 c -0.582571,0.149 -0.510596,0.087794 -2.8159337,2.3946649 -3.2886256,3.2908121 -3.5523292,3.592718 -3.5523292,4.0669004 0,0.3763647 -0.020995,0.3724588 2.0802648,0.3872707 0.933042,0.00659 1.7824761,-0.0047 1.7824761,-0.0047 0,0 0.361409,-0.7313412 0.681368,-1.426706 0.365539,-0.7944177 0.67263,-1.452406 0.682424,-1.4622001 0.0098,-0.00976 0.201332,0.7294529 0.425646,1.6427766 0.389595,1.5862883 0.421878,1.7101766 0.445599,1.7101766 0.0058,0 0.585324,-0.3643412 1.288174,-0.8096472 z M 6.0904366,23.1219 C 5.8115647,23.032629 5.5258216,22.802892 5.406497,22.57201 4.9176708,21.626174 7.2170444,20.777115 8.1607392,21.554992 8.3039586,21.673045 8.2905451,21.733874 8.0370163,22.116074 7.5387508,22.867216 6.6803819,23.310748 6.0904366,23.1219 Z M 21.782232,22.815903 c -0.617068,-0.220211 -0.760039,-0.846359 -0.305783,-1.33917 0.338727,-0.367477 1.456214,0.368177 1.456214,0.958641 0,0.324777 -0.678117,0.549079 -1.150431,0.380529 z m 1.498674,-2.127152 c -0.997984,-0.113735 -1.2736,-0.268477 -1.106718,-0.621348 0.625719,-1.323081 3.307374,-1.250993 3.522559,0.09469 0.07209,0.450841 -1.010411,0.686828 -2.415841,0.526653 z"
            style="fill:currentColor;stroke-width:0.124963"
        />
    </symbol>
</svg>